<?xml version="1.0" standalone="no"?><!DOCTYPE svg PUBLIC "-//W3C//DTD SVG 1.1//EN" "http://www.w3.org/Graphics/SVG/1.1/DTD/svg11.dtd">
<svg t="1672795365953" class="icon" viewBox="0 0 1303 1024" version="1.1" xmlns="http://www.w3.org/2000/svg" p-id="2585"
     width="254.4921875" height="200"><path d="M110.964364 1023.720727c-60.509091 0-109.847273-48.872727-109.847273-108.916363V109.009455C1.117091 48.965818 50.455273 0 110.964364 0h1081.902545c60.509091 0 109.847273 48.872727 109.847273 108.916364v805.794909c0 60.043636-49.338182 108.916364-109.847273 108.916363H110.964364z m0-927.650909c-6.609455 0-12.101818 5.771636-12.101819 12.939637v805.794909c0 7.168 5.492364 13.032727 12.101819 13.032727h1081.902545c6.609455 0 12.101818-5.864727 12.101818-13.032727V109.009455c0-7.168-5.492364-13.032727-12.101818-13.032728H110.964364z" fill="#00AEEC" p-id="2586"></path><path d="M1003.054545 520.098909a51.572364 51.572364 0 0 1-50.26909 52.689455h-80.058182a51.572364 51.572364 0 0 1-50.269091-52.689455c0-29.137455 22.434909-52.782545 50.269091-52.782545h80.058182c27.834182 0 50.269091 23.645091 50.26909 52.782545zM1096.610909 270.149818c0 28.858182-22.341818 52.410182-49.989818 52.410182H232.541091a51.293091 51.293091 0 0 1-50.082909-52.410182c0-29.044364 22.434909-52.503273 50.082909-52.503273h814.08c27.648 0 50.082909 23.458909 50.082909 52.503273zM768.744727 520.098909c0 28.858182-22.341818 52.410182-50.082909 52.410182H232.541091a51.293091 51.293091 0 0 1-50.082909-52.410182c0-29.044364 22.434909-52.503273 50.082909-52.503273H718.661818c27.648 0 50.082909 23.458909 50.082909 52.503273zM1096.610909 735.976727c0 29.044364-22.341818 52.503273-49.989818 52.503273H560.500364a51.293091 51.293091 0 0 1-50.082909-52.503273c0-28.951273 22.341818-52.410182 50.082909-52.410182h486.120727c27.648 0 50.082909 23.458909 50.082909 52.410182z" fill="#00AEEC" p-id="2587"></path></svg>
